<?xml version="1.0" encoding="UTF-8" standalone="no"?>
<!DOCTYPE svg PUBLIC "-//W3C//DTD SVG 1.1//EN"
 "http://www.w3.org/Graphics/SVG/1.1/DTD/svg11.dtd">
<!-- Generated by graphviz version 2.43.0 (0)
 -->
<!-- Title: %3 Pages: 1 -->
<svg width="709pt" height="165pt"
 viewBox="0.00 0.00 709.00 164.74" xmlns="http://www.w3.org/2000/svg" xmlns:xlink="http://www.w3.org/1999/xlink">
<g id="graph0" class="graph" transform="scale(1 1) rotate(0) translate(36 128.74)">
<title>%3</title>
<polygon fill="dimgray" stroke="transparent" points="-36,36 -36,-128.74 673,-128.74 673,36 -36,36"/>
<text text-anchor="middle" x="318.5" y="-77.54" font-family="Helvetica,sans-Serif" font-size="14.00">Sweep&#39;s Plan &amp; Progress</text>
<!-- start -->
<g id="node1" class="node">
<title>start</title>
</g>
<!-- 76f5ad72&#45;a853&#45;4947&#45;ab5f&#45;667d6a06c943 -->
<g id="node3" class="node">
<title>76f5ad72&#45;a853&#45;4947&#45;ab5f&#45;667d6a06c943</title>
<ellipse fill="#0ee832" stroke="black" cx="315.5" cy="-26.87" rx="263.09" ry="26.74"/>
<text text-anchor="middle" x="315.5" y="-30.67" font-family="Helvetica,sans-Serif" font-size="14.00">✓ Create</text>
<text text-anchor="middle" x="315.5" y="-15.67" font-family="Helvetica,sans-Serif" font-size="14.00">webhook_server_container/tests/test_github_api.py</text>
</g>
<!-- start&#45;&gt;76f5ad72&#45;a853&#45;4947&#45;ab5f&#45;667d6a06c943 -->
<g id="edge1" class="edge">
<title>start&#45;&gt;76f5ad72&#45;a853&#45;4947&#45;ab5f&#45;667d6a06c943</title>
<path fill="none" stroke="black" d="M1.01,-26.87C3.96,-26.87 19.46,-26.87 42.12,-26.87"/>
<polygon fill="black" stroke="black" points="42.25,-30.37 52.25,-26.87 42.25,-23.37 42.25,-30.37"/>
<text text-anchor="middle" x="26.73" y="-33.67" font-family="Helvetica,sans-Serif" font-size="14.00">Start</text>
</g>
<!-- end -->
<g id="node2" class="node">
<title>end</title>
</g>
<!-- 76f5ad72&#45;a853&#45;4947&#45;ab5f&#45;667d6a06c943&#45;&gt;end -->
<g id="edge2" class="edge">
<title>76f5ad72&#45;a853&#45;4947&#45;ab5f&#45;667d6a06c943&#45;&gt;end</title>
<path fill="none" stroke="black" d="M578.74,-26.87C599.12,-26.87 615.69,-26.87 625.77,-26.87"/>
<polygon fill="black" stroke="black" points="625.89,-30.37 635.89,-26.87 625.89,-23.37 625.89,-30.37"/>
<text text-anchor="middle" x="607.27" y="-33.67" font-family="Helvetica,sans-Serif" font-size="14.00">Finish</text>
</g>
</g>
</svg>
